<svg width="400" height="300" viewBox="0 0 400 300" fill="none" xmlns="http://www.w3.org/2000/svg">
  <defs>
    <linearGradient id="bgGradient" x1="0%" y1="0%" x2="100%" y2="100%">
      <stop offset="0%" style="stop-color:#ff9800;stop-opacity:0.1" />
      <stop offset="100%" style="stop-color:#ff9800;stop-opacity:0.3" />
    </linearGradient>
    <linearGradient id="iconGradient" x1="0%" y1="0%" x2="100%" y2="100%">
      <stop offset="0%" style="stop-color:#ff9800" />
      <stop offset="100%" style="stop-color:#ffb74d" />
    </linearGradient>
  </defs>
  
  <!-- Background -->
  <rect width="400" height="300" fill="url(#bgGradient)" rx="20"/>
  
  <!-- Warehouse building -->
  <rect x="100" y="120" width="200" height="120" fill="url(#iconGradient)" opacity="0.8" rx="10"/>
  
  <!-- Warehouse doors -->
  <rect x="120" y="140" width="40" height="80" fill="white" opacity="0.3" rx="5"/>
  <rect x="180" y="140" width="40" height="80" fill="white" opacity="0.3" rx="5"/>
  <rect x="240" y="140" width="40" height="80" fill="white" opacity="0.3" rx="5"/>
  
  <!-- Loading dock -->
  <rect x="80" y="200" width="240" height="20" fill="url(#iconGradient)" opacity="0.6" rx="5"/>
  
  <!-- Trucks -->
  <rect x="60" y="180" width="60" height="30" fill="url(#iconGradient)" opacity="0.7" rx="5"/>
  <circle cx="70" cy="220" r="8" fill="url(#iconGradient)" opacity="0.8"/>
  <circle cx="90" cy="220" r="8" fill="url(#iconGradient)" opacity="0.8"/>
  
  <rect x="280" y="180" width="60" height="30" fill="url(#iconGradient)" opacity="0.7" rx="5"/>
  <circle cx="290" cy="220" r="8" fill="url(#iconGradient)" opacity="0.8"/>
  <circle cx="310" cy="220" r="8" fill="url(#iconGradient)" opacity="0.8"/>
  
  <!-- Conveyor belt -->
  <rect x="150" y="100" width="100" height="10" fill="url(#iconGradient)" opacity="0.6" rx="5"/>
  <rect x="160" y="95" width="80" height="20" fill="white" opacity="0.2" rx="3"/>
  
  <!-- Packages -->
  <rect x="170" y="90" width="15" height="15" fill="white" opacity="0.8" rx="2"/>
  <rect x="190" y="90" width="15" height="15" fill="white" opacity="0.8" rx="2"/>
  <rect x="210" y="90" width="15" height="15" fill="white" opacity="0.8" rx="2"/>
  
  <!-- Forklift -->
  <rect x="200" y="160" width="30" height="20" fill="url(#iconGradient)" opacity="0.9" rx="3"/>
  <rect x="210" y="150" width="10" height="15" fill="url(#iconGradient)" opacity="0.8" rx="2"/>
  
  <!-- Storage racks -->
  <rect x="120" y="80" width="8" height="40" fill="url(#iconGradient)" opacity="0.6" rx="2"/>
  <rect x="130" y="80" width="8" height="40" fill="url(#iconGradient)" opacity="0.6" rx="2"/>
  <rect x="140" y="80" width="8" height="40" fill="url(#iconGradient)" opacity="0.6" rx="2"/>
  
  <rect x="250" y="80" width="8" height="40" fill="url(#iconGradient)" opacity="0.6" rx="2"/>
  <rect x="260" y="80" width="8" height="40" fill="url(#iconGradient)" opacity="0.6" rx="2"/>
  <rect x="270" y="80" width="8" height="40" fill="url(#iconGradient)" opacity="0.6" rx="2"/>
  
  <!-- Floating elements -->
  <circle cx="50" cy="80" r="6" fill="url(#iconGradient)" opacity="0.5"/>
  <circle cx="350" cy="100" r="8" fill="url(#iconGradient)" opacity="0.4"/>
  <circle cx="320" cy="250" r="5" fill="url(#iconGradient)" opacity="0.6"/>
  
  <!-- Route lines -->
  <path d="M50 150 L100 150" stroke="url(#iconGradient)" stroke-width="3" opacity="0.6"/>
  <path d="M300 150 L350 150" stroke="url(#iconGradient)" stroke-width="3" opacity="0.6"/>
</svg>
