<svg width="400" height="300" viewBox="0 0 400 300" fill="none" xmlns="http://www.w3.org/2000/svg">
  <defs>
    <linearGradient id="bgGradient" x1="0%" y1="0%" x2="100%" y2="100%">
      <stop offset="0%" style="stop-color:#f5a623;stop-opacity:0.1" />
      <stop offset="100%" style="stop-color:#f5a623;stop-opacity:0.3" />
    </linearGradient>
    <linearGradient id="iconGradient" x1="0%" y1="0%" x2="100%" y2="100%">
      <stop offset="0%" style="stop-color:#f5a623" />
      <stop offset="100%" style="stop-color:#ff8c00" />
    </linearGradient>
  </defs>
  
  <!-- Background -->
  <rect width="400" height="300" fill="url(#bgGradient)" rx="20"/>
  
  <!-- Network nodes -->
  <circle cx="100" cy="80" r="20" fill="url(#iconGradient)" opacity="0.8"/>
  <circle cx="200" cy="60" r="25" fill="url(#iconGradient)" opacity="0.9"/>
  <circle cx="300" cy="90" r="18" fill="url(#iconGradient)" opacity="0.7"/>
  <circle cx="150" cy="150" r="22" fill="url(#iconGradient)" opacity="0.8"/>
  <circle cx="250" cy="140" r="20" fill="url(#iconGradient)" opacity="0.9"/>
  <circle cx="180" cy="200" r="24" fill="url(#iconGradient)" opacity="0.7"/>
  
  <!-- Connection lines -->
  <path d="M100 80 L200 60" stroke="url(#iconGradient)" stroke-width="3" opacity="0.6"/>
  <path d="M200 60 L300 90" stroke="url(#iconGradient)" stroke-width="3" opacity="0.6"/>
  <path d="M200 60 L150 150" stroke="url(#iconGradient)" stroke-width="3" opacity="0.6"/>
  <path d="M150 150 L250 140" stroke="url(#iconGradient)" stroke-width="3" opacity="0.6"/>
  <path d="M250 140 L180 200" stroke="url(#iconGradient)" stroke-width="3" opacity="0.6"/>
  
  <!-- Central hub -->
  <circle cx="200" cy="120" r="35" fill="url(#iconGradient)" opacity="0.9"/>
  <circle cx="200" cy="120" r="25" fill="white" opacity="0.2"/>
  
  <!-- Integration symbols -->
  <rect x="185" y="105" width="30" height="30" fill="white" opacity="0.3" rx="5"/>
  <path d="M195 115 L205 125 M205 115 L195 125" stroke="white" stroke-width="2"/>
  
  <!-- Floating elements -->
  <circle cx="80" cy="220" r="8" fill="url(#iconGradient)" opacity="0.5"/>
  <circle cx="320" cy="200" r="6" fill="url(#iconGradient)" opacity="0.5"/>
  <circle cx="350" cy="150" r="10" fill="url(#iconGradient)" opacity="0.4"/>
</svg>

